HIERARCHY
ROOT Hips
{
	OFFSET 0.00000 0.00000 0.00000
	CHANNELS 6 Xposition Yposition Zposition Zrotation Yrotation Xrotation 
	JOINT LHipJoint
	{
		OFFSET 0 0 0
		CHANNELS 3 Zrotation Yrotation Xrotation
		JOINT LeftHip
		{
			OFFSET 1.84395 -1.68683 0.74144
			CHANNELS 3 Zrotation Yrotation Xrotation
			JOINT LeftKnee
			{
				OFFSET 2.27037 -6.23779 0.00000
				CHANNELS 3 Zrotation Yrotation Xrotation
				JOINT LeftAnkle
				{
					OFFSET 2.56918 -7.05877 0.00000
					CHANNELS 3 Zrotation Yrotation Xrotation
					JOINT LeftToe
					{
						OFFSET 0.22276 -0.61202 1.71784
						CHANNELS 3 Zrotation Yrotation Xrotation
						End Site
						{
							OFFSET 0.00000 -0.00000 0.91613
						}
					}
				}
			}
		}
	}
	JOINT RHipJoint
	{
		OFFSET 0 0 0
		CHANNELS 3 Zrotation Yrotation Xrotation
		JOINT RightHip
		{
			OFFSET -1.76833 -1.68684 0.74144
			CHANNELS 3 Zrotation Yrotation Xrotation
			JOINT RightKnee
			{
				OFFSET -2.49360 -6.85110 0.00000
				CHANNELS 3 Zrotation Yrotation Xrotation
				JOINT RightAnkle
				{
					OFFSET -2.55538 -7.02085 0.00000
					CHANNELS 3 Zrotation Yrotation Xrotation
					JOINT RightToe
					{
						OFFSET -0.21516 -0.59115 1.68050
						CHANNELS 3 Zrotation Yrotation Xrotation
						End Site
						{
							OFFSET -0.00000 -0.00000 0.89604
						}
					}
				}
			}
		}
	}
	JOINT lowerback
	{
		OFFSET 0 0 0
		CHANNELS 3 Zrotation Yrotation Xrotation
		JOINT Chest
		{
			OFFSET 0.06382 1.72312 -0.19613
			CHANNELS 3 Zrotation Yrotation Xrotation
			JOINT Chest2
			{
				OFFSET -0.00055 1.73507 0.23859
				CHANNELS 3 Zrotation Yrotation Xrotation
				JOINT lowerneck
				{
					OFFSET 0 0 0
					CHANNELS 3 Zrotation Yrotation Xrotation
					JOINT Neck
					{
						OFFSET 0.03638 1.65562 0.09633
						CHANNELS 3 Zrotation Yrotation Xrotation
						JOINT Head
						{
							OFFSET 0.06388 1.62807 -0.32386
							CHANNELS 3 Zrotation Yrotation Xrotation
							End Site
							{
								OFFSET 0.00995 1.67644 -0.12021
							}
						}
					}
				}
				JOINT LeftCollar
				{
					OFFSET 0 0 0
					CHANNELS 3 Zrotation Yrotation Xrotation
					JOINT LeftShoulder
					{
						OFFSET 3.09648 1.42991 0.28122
CHANNELS 3 Zrotation Xrotation Yrotation
						JOINT LeftElbow
						{
OFFSET 0 -5.118780 -0.000000
CHANNELS 3 Zrotation Xrotation Yrotation
							JOINT LeftWrist
							{
OFFSET 0 -3.599710 0.000000
CHANNELS 3 Zrotation Xrotation Yrotation
								JOINT lhand
								{
									OFFSET 0 0 0
CHANNELS 3 Zrotation Xrotation Yrotation
									JOINT LFingers
									{
OFFSET 0 -0.628770 0.000000
CHANNELS 3 Zrotation Xrotation Yrotation
										End Site
										{
OFFSET 0 -0.506930 0.000000
										}
									}
								}
								JOINT LThumb
								{
OFFSET 0 0.000000 0.000000
CHANNELS 3 Zrotation Xrotation Yrotation
									End Site
									{
OFFSET 0 -0.514670 0.514670
									}
								}
							}
						}
					}
				}
				JOINT RightCollar
				{
					OFFSET 0 0 0
					CHANNELS 3 Zrotation Yrotation Xrotation
					JOINT RightShoulder
					{
						OFFSET -3.33565 1.14597 0.05047
CHANNELS 3 Zrotation Xrotation Yrotation
						JOINT RightElbow
						{
OFFSET 0 -5.490200 0.000000
CHANNELS 3 Zrotation Xrotation Yrotation
							JOINT RightWrist
							{
OFFSET 0 -3.206590 -0.000000
CHANNELS 3 Zrotation Xrotation Yrotation
								JOINT rhand
								{
									OFFSET 0 0 0
CHANNELS 3 Zrotation Xrotation Yrotation
									JOINT RFingers
									{
OFFSET 0 -0.691880 0.000000
CHANNELS 3 Zrotation Xrotation Yrotation
										End Site
										{
OFFSET 0 -0.557810 0.000000
										}
									}
								}
								JOINT RThumb
								{
OFFSET 0 0.000000 0.000000
CHANNELS 3 Zrotation Xrotation Yrotation
									End Site
									{
OFFSET 0 -0.566330 0.566330
									}
								}
							}
						}
					}
				}
			}
		}
	}
}
MOTION
Frames: 7
Frame Time: .0083333
0.6309 17.4738 9.0587 -9.9154 -1.7371 8.3713 0.0000 0.0000 0.0000 -18.0145 -39.4352 24.2503 0.0685 -1.6891 -4.6473 -6.0761 42.8577 -39.1547 0.2191 3.0133 8.3158 0.0000 0.0000 0.0000 28.6359 24.1281 5.1748 -0.0111 -0.6804 1.8699 0.7956 -18.5140 -17.6703 -0.0002 0.0994 -0.2730 7.9597 1.3946 2.9335 1.3329 2.6997 -8.8734 -3.3292 0.6947 -10.9142 -7.0460 -13.2184 -6.5179 7.2369 -18.7137 17.3016 1.6569 -8.8917 7.7543 0.0000 0.0000 0.0000 -0.8582 11.7165 4.4964 8.9273 -15.0445 1.1812 17.7459 24.6292 10.0918 0.0 0.0 0.0 -7.1250 0.0 0.0 -6.5789 19.4314 -4.0421 0.0000 0.0000 0.0000 3.8465 11.8349 -9.5304 -11.5400 -19.1112 -1.9491 7.7671 42.5922 28.6958 0.0 0.0 0.0 7.1250 0.0 -0.0 39.7554 54.0233 -10.0327
0.6235 17.4646 9.0475 -10.0921 -1.5461 8.6799 0.0000 0.0000 0.0000 -16.9479 -39.0907 23.1283 0.0681 -1.6839 -4.6328 -6.0367 42.4615 -38.1388 0.1904 2.8105 7.7516 0.0000 0.0000 0.0000 28.7548 24.2893 4.7504 -0.0130 -0.7348 2.0194 0.8141 -18.6547 -17.7180 -0.0018 0.2723 -0.7482 7.9867 1.2396 2.6977 1.5704 2.5081 -9.1528 -3.0601 0.5974 -11.1263 -7.6564 -13.0252 -5.7380 7.4956 -18.4547 17.1763 1.9092 -8.8152 7.6421 0.0000 0.0000 0.0000 -1.2054 12.22 4.7682 8.9927 -15.1487 1.1982 17.8214 24.4492 10.091 0.0 0.0 0.0 -7.1250 0.0 0.0 -6.5253 19.4273 -4.0093 0.0000 0.0000 0.0000 3.5078 12.2768 -9.0418 -11.5544 -19.133 -1.9538 7.757 42.5334 28.6786 0.0 0.0 0.0 7.1250 0.0 -0.0 39.7323 54.0116 -10.013
0.6247 17.4616 9.0548 -10.1567 -1.6963 8.7217 0.0000 0.0000 0.0000 -17.1339 -39.3102 23.4821 0.0694 -1.6995 -4.6760 -6.0157 42.6421 -38.8149 0.2203 3.0215 8.3385 0.0000 0.0000 0.0000 28.7772 24.2442 4.6531 -0.0136 -0.7531 2.0697 0.7914 -18.4544 -17.5941 -0.0035 0.3838 -1.0547 7.9731 1.1803 2.4800 1.7680 2.4307 -9.2965 -2.8241 0.5668 -11.1778 -8.2348 -12.8332 -4.9769 7.6814 -18.1957 17.0613 2.1331 -8.7417 7.5241 0.0000 0.0000 0.0000 -1.587 12.7032 5.1446 9.0378 -15.2207 1.21 17.9574 24.3203 10.1207 0.0 0.0 0.0 -7.1250 0.0 0.0 -6.4286 19.3876 -3.9549 0.0000 0.0000 0.0000 3.15 12.7066 -8.54 -11.5571 -19.1372 -1.9547 7.7313 42.4454 28.7518 0.0 0.0 0.0 7.1250 0.0 -0.0 39.7696 54.0743 -10.0907
0.6254 17.4578 9.0564 -10.1575 -1.7498 8.8727 0.0000 0.0000 0.0000 -17.1004 -39.4569 23.4199 0.0697 -1.7030 -4.6856 -6.0129 42.7186 -39.0638 0.2327 3.1046 8.5701 0.0000 0.0000 0.0000 28.7114 24.3996 4.5100 -0.0140 -0.7638 2.0991 0.7848 -18.4255 -17.6283 -0.0013 0.2333 -0.6409 7.8937 1.0918 2.2294 1.9634 2.3061 -9.4566 -2.5482 0.5190 -11.2333 -8.7741 -12.6608 -4.3657 7.7946 -17.9547 16.9726 2.3154 -8.6736 7.4300 0.0000 -0.0000 0.0000 -1.9932 13.1286 5.4369 9.0959 -15.3132 1.2253 18.0253 24.1184 10.1536 0.0 0.0 0.0 -7.1250 0.0 0.0 -6.3804 19.3488 -3.9304 0.0000 -0.0000 0.0000 2.7563 13.0192 -8.0905 -11.5352 -19.104 -1.9475 7.7554 42.4217 28.8512 0.0 0.0 0.0 7.1250 0.0 -0.0 39.8733 54.1482 -10.2018
0.6212 17.4567 9.0659 -9.9580 -1.5702 9.2502 0.0000 0.0000 0.0000 -16.9854 -39.7952 22.9279 0.0684 -1.6871 -4.6417 -6.0526 42.7575 -38.9725 0.2273 3.0686 8.4698 0.0000 0.0000 0.0000 28.4154 24.8351 4.3637 -0.0122 -0.7133 1.9601 0.8352 -18.8555 -17.8725 -0.0002 -0.0914 0.2510 7.5454 0.9347 1.5519 2.1141 2.0204 -9.6369 -2.1459 0.4231 -11.0660 -9.1990 -12.4789 -3.8417 7.8773 -17.7058 16.8821 2.4675 -8.5939 7.3348 0.0000 -0.0000 0.0000 -2.3568 13.5386 5.5455 9.1852 -15.4551 1.249 18.0173 23.7862 10.136 0.0 0.0 0.0 -7.1250 0.0 0.0 -6.3861 19.3676 -3.9313 0.0000 -0.0000 0.0000 2.3155 13.1543 -7.6597 -11.3491 -18.8214 -1.887 7.5374 42.5587 28.8287 0.0 0.0 0.0 7.1250 0.0 -0.0 39.6601 54.1715 -10.1567
0.6097 17.4537 9.0807 -9.5352 -1.3405 10.0241 0.0000 0.0000 0.0000 -16.7611 -40.4293 21.9057 0.0646 -1.6402 -4.5124 -6.0202 42.7328 -39.0682 0.2366 3.1303 8.6418 0.0000 0.0000 0.0000 27.7030 25.4935 3.8163 -0.0103 -0.6563 1.8035 0.9112 -19.4453 -18.1408 -0.0048 -0.4470 1.2283 6.7650 0.6226 0.3110 2.4595 1.4775 -10.0551 -1.2655 0.2481 -10.8545 -10.1519 -12.0626 -2.7225 8.0132 -17.1410 16.6847 2.7881 -8.4119 7.1237 -0.0000 0.0000 0.0000 -3.2534 14.4359 5.4932 9.5191 -15.9839 1.3395 17.589 23.6301 8.3616 0.0 0.0 0.0 -7.1250 0.0 0.0 -6.7050 21.2391 -3.8465 -0.0000 0.0000 0.0000 1.3442 13.5853 -6.5421 -11.0230 -18.3234 -1.7831 7.0094 42.6545 28.5852 0.0 0.0 0.0 7.1250 0.0 -0.0 38.9882 54.0777 -9.8435
0.6039 17.4565 9.0836 -9.3069 -1.2497 10.2986 0.0000 0.0000 0.0000 -16.7105 -40.6146 21.4544 0.0628 -1.6173 -4.4490 -5.9833 42.6592 -39.0396 0.2376 3.1371 8.6607 0.0000 0.0000 0.0000 27.3509 25.7068 3.5960 -0.0097 -0.6366 1.7495 0.9391 -19.6614 -18.2516 -0.0083 -0.5879 1.6155 6.3377 0.4074 -0.0316 2.6768 1.1493 -10.0950 -0.7620 0.1412 -10.7202 -10.4955 -11.9159 -3.0030 7.8958 -16.8742 16.8415 2.8082 -8.3004 7.2177 -0.0000 0.0000 0.0000 -3.7845 14.4725 5.843 9.6368 -16.1694 1.3721 17.4369 23.6872 7.7991 0.0 0.0 0.0 -7.1250 0.0 0.0 -6.8242 21.8312 -3.8237 -0.0000 0.0000 0.0000 0.7843 13.3397 -6.0134 -10.8023 -17.9846 -1.7144 6.6319 42.9608 28.2755 0.0 0.0 0.0 7.1250 0.0 -0.0 38.3998 53.9008 -9.4789
